<svg xmlns="http://www.w3.org/2000/svg" data-name="Layer 1" viewBox="0 0 128 128"><path d="M66 88.44a2 2 0 0 0 1.75-.17A12.33 12.33 0 0 1 70.55 87a10.76 10.76 0 0 0 5.87 2 7.23 7.23 0 0 0 2.33-.38 2 2 0 0 0 .75-.46A6 6 0 0 1 81.19 87a2 2 0 0 0 .51.09 6.26 6.26 0 0 0 6.21-4.69 2 2 0 0 0-.26-1.69L83.12 74a2 2 0 1 0-3.31 2.25l3.92 5.78a2.15 2.15 0 0 1-1.62 1c-2-.53-4 1-5 1.84-2.11.44-4.42-1.36-4.45-1.39-1.26-1-3.3-.76-6.07.77-.39-.23-.57-.45-.59-.59-.12-.8 1.36-2.63 2.76-3.72a2 2 0 0 0 .77-1.78l-.34-3.42a2 2 0 1 0-4 .39l.23 2.38a14.71 14.71 0 0 0-1.81 2c-1.73 1.43-5.4 4.91-4.49 8a2.06 2.06 0 0 0 2 1.48 1.93 1.93 0 0 0 .54-.08A2 2 0 0 0 63 86.54s0-.05 0-.07A6.86 6.86 0 0 0 66 88.44zM61.37 92A2 2 0 0 0 59 93.63s-.69 3.31-3 4.64a2 2 0 0 0 2 3.48c4-2.25 4.94-7.16 5-7.36A2 2 0 0 0 61.37 92zM92.61 93.1A5.65 5.65 0 0 1 92 90.85a2 2 0 0 0-4 .3c.06.85.53 5.14 3.56 5.81a2 2 0 0 0 1-3.86zM79.66 95a10.82 10.82 0 0 0-3.32.53 14.78 14.78 0 0 0-3.1-.34 10 10 0 0 0-9 4.88 2 2 0 0 0 .08 2c2.78 4.44 9.68 4.9 10.44 4.93l1.06 0c8.33 0 11.77-5.5 11.91-5.73A2 2 0 0 0 87.58 99 9.8 9.8 0 0 0 79.66 95zm1.46 6.82A11.63 11.63 0 0 1 75.8 103a14.83 14.83 0 0 1-3-.32 12.85 12.85 0 0 1-2.42-.77 17.93 17.93 0 0 1-1.74-1 6.54 6.54 0 0 1 4.65-1.72 11.47 11.47 0 0 1 2.74.36 2.07 2.07 0 0 0 1.3-.11A6.74 6.74 0 0 1 79.66 99a5.6 5.6 0 0 1 3.65 1.31A22.51 22.51 0 0 1 81.12 101.82zM70.7 114.48a2 2 0 0 0 2.59 3c.41-.34 4-3.2 7.33-.08a2 2 0 1 0 2.76-2.9C78.61 110 73 112.52 70.7 114.48zM51.47 52.94l3.68 1a24.3 24.3 0 0 0 5.87.72 15.35 15.35 0 0 0 1.66-.09l4.45 5.7a3.56 3.56 0 0 1 .72 3.22l-1.56 2.45a2 2 0 0 0 3.38 2.14l1.56-2.45c1.32-2.08.91-5.44-.95-7.82l-3.16-4a2 2 0 0 0-1.39-3.63l-3.32.44a19.16 19.16 0 0 1-6.21-.5l-3.68-1a2 2 0 1 0-1 3.86z"/><path d="M58.73 63.09l3.42 1.61a2 2 0 1 0 1.7-3.62l-4-1.88A2 2 0 0 0 58.63 59l-6.94 1.29a2 2 0 0 0-1 .47l-3.06 2.71a2 2 0 0 0 2.65 3L53 64.16zM61.64 66.87a2 2 0 0 0-2.71-.81 10.52 10.52 0 0 1-5.15 1.27 2 2 0 0 0-.32 4s.23 0 .55 0a14.76 14.76 0 0 0 6.81-1.75A2 2 0 0 0 61.64 66.87zM92.79 68.76a5.16 5.16 0 0 1-2.8-.49 2 2 0 0 0-2 3.46 8.92 8.92 0 0 0 4.27 1.06 9.22 9.22 0 0 0 1 0 2 2 0 0 0-.42-4zM42.73 57.46a7.81 7.81 0 0 0-2.45 8.12A2 2 0 0 0 42.2 67a2 2 0 0 0 .57-.09 2 2 0 0 0 1.34-2.49 3.87 3.87 0 0 1 1.16-3.88 2 2 0 1 0-2.54-3.09zM79.86 68.22A2 2 0 0 0 83 65.79l-1.81-2.37a3.17 3.17 0 0 1 .45-3.12l2.14-3a12.42 12.42 0 0 1 10 2.08 2 2 0 1 0 2.35-3.24 16.79 16.79 0 0 0-2.52-1.51 2 2 0 0 0-1.71-3.54l-7 2a13.94 13.94 0 0 0-3 .58 2 2 0 0 0-1 .73L78.43 58c-1.75 2.46-1.91 5.84-.38 7.86z"/><path d="M96.3,62.68a2,2,0,0,0-1.2-.77l-4-.86a2,2,0,0,0-1.33.18l-3.67,1.89a2,2,0,1,0,1.83,3.56l3-1.56,2.59.55,1.86,2.53a2,2,0,1,0,3.22-2.37Z"/><path d="M116.37,111.33a1.91,1.91,0,0,0-.58-.06c-4.72.22-11.8-1.68-15.33-2.67a62.33,62.33,0,0,0,5.8-18.52c1-4.78,1.69-9.17,2.14-13.21,0,0,0,0,0,0,12.12-26,1.06-46.87-.29-49.25C101.81,8.91,78.28,1.73,77.29,1.43,68-1.37,59,.49,53.46,2.32l-.4.14-.36.12a37.09,37.09,0,0,0-4.77,2,2,2,0,0,0-.28.18,32.72,32.72,0,0,1-10.73,5.1,9.75,9.75,0,0,0-2,.29h0c-.27.07-.54.15-.81.24l-.21.07c-.25.09-.5.19-.75.3l-.22.1-.41.18-.16.1a17.6,17.6,0,0,0-5.66,5C1,47.81,16.59,87.81,18.73,92.87c-.16,2.47,1.06,5.89,3.62,10.16a6,6,0,0,0,3.84,2.85,5.81,5.81,0,0,0,1.17.12,6,6,0,0,0,3.42-1.11,1.75,1.75,0,0,0,.33-.28l2.55-2.74c8,23,30.37,25.49,32.19,25.65a38.32,38.32,0,0,0,5.94.48,28.83,28.83,0,0,0,17.79-5.8,36.29,36.29,0,0,0,8.85-10l8.3,8a8,8,0,0,1,2.27,3.57V126a2,2,0,0,0,2,2h14.94a2,2,0,0,0,2-1.8C128.86,117,120.77,112.43,116.37,111.33ZM61.9,17.67a2,2,0,0,1,3,2.65c-.06.06-3.74,4.35-2.72,8.84.64,2.83,3,5.28,7.14,7.31a2,2,0,0,0-1.46,1L66.6,39.57C61.92,37,59.12,33.83,58.27,30,56.82,23.5,61.69,17.91,61.9,17.67ZM31,27h0c2.69,0,5.86-4.54,6.08-8.72a11.28,11.28,0,0,1,1.46-4.74,38.54,38.54,0,0,0,7.94-3.31,2,2,0,0,1-.32.33,18.91,18.91,0,0,0-3,3.14,9.46,9.46,0,0,0-2.11,4.8C40.84,24.32,36.39,31,31.08,31H31a2,2,0,0,1-2-2A2,2,0,0,1,31,27Zm56.11,92c-5.7,4.3-12.68,5.83-20.74,4.55l-.19,0c-.27,0-26.64-2-30.85-31.57-.16-1.09-3.67-6.76-2.87-7.72a3.74,3.74,0,0,1-3.34,1.28l-.21,0a3.84,3.84,0,0,0,.64,1.28,2,2,0,0,1-.37,2.81A2,2,0,0,1,28,90a2,2,0,0,1-1.59-.78,8.21,8.21,0,0,1-1-7.9,2,2,0,0,1,1.77-1.2A2,2,0,0,1,29,81.21a1,1,0,0,0,.52.33A5.22,5.22,0,0,0,27.43,75a2.71,2.71,0,0,0-1.61.38,2,2,0,0,1-3.68-1.55c1-2.45,4.5-3.22,6.41-2.67a7.92,7.92,0,0,1,4.81,5.08,1.85,1.85,0,0,0,.07-.58c0-.8-.09-1.69-.15-2.66-.38-5.68-.94-14.25,2.75-20.64a70.49,70.49,0,0,0,7.65-10.73l.87,1.9a2,2,0,0,0,1.89,1.16,2,2,0,0,0,1.8-1.29c.89-2.34,2.36-4.78,3.18-5.32a2.32,2.32,0,0,0,.46.35c.09,0,9.62,5.46,13.23,7.6a1.89,1.89,0,0,0,.48.19h0a2,2,0,0,0,.47.06h.06a2,2,0,0,0,.47-.06,2,2,0,0,0,1.23-.92l2.48-4.21,13.79,7.35a2,2,0,0,0,2.07-.11A2,2,0,0,0,87,46.48l-.3-2.66L96.08,49a2.26,2.26,0,0,0,1.08.25c.09,0,2.1,0,4,2.26,2.67,3.16,6.37,12.29,1.12,37.88l0,.16C102.28,89.71,99.71,109.56,87.15,119Z"/><path d="M26.45 113.75a24 24 0 0 0 4.62-2.06 2 2 0 0 0-2.13-3.38c-.06 0-6.44 3.92-17.15 3.43a2.19 2.19 0 0 0-.58.06C7 112.86-.83 117.25.07 126.2a2 2 0 0 0 2 1.8h.2c1.1-.11 27.63 0 28.74 0a2 2 0 0 0 2-2v-2.25c0-2-1.65-4.8-3.29-6.53zM33.46 76.54a2.47 2.47 0 0 0-.1-.29v0C33.39 76.36 33.42 76.45 33.46 76.54z"/></svg>